<?xml version="1.0" encoding="UTF-8" standalone="no"?>
<!-- Created with Inkscape (http://www.inkscape.org/) -->

<svg
   xmlns:dc="http://purl.org/dc/elements/1.1/"
   xmlns:cc="http://creativecommons.org/ns#"
   xmlns:rdf="http://www.w3.org/1999/02/22-rdf-syntax-ns#"
   xmlns:svg="http://www.w3.org/2000/svg"
   xmlns="http://www.w3.org/2000/svg"
   xmlns:xlink="http://www.w3.org/1999/xlink"
   xmlns:sodipodi="http://sodipodi.sourceforge.net/DTD/sodipodi-0.dtd"
   xmlns:inkscape="http://www.inkscape.org/namespaces/inkscape"
   width="744.09448819"
   height="1052.3622047"
   id="svg3080"
   version="1.1"
   inkscape:version="0.48.2 r9819"
   sodipodi:docname="New document 2">
  <defs
     id="defs3082" />
  <sodipodi:namedview
     id="base"
     pagecolor="#ffffff"
     bordercolor="#666666"
     borderopacity="1.0"
     inkscape:pageopacity="0.0"
     inkscape:pageshadow="2"
     inkscape:zoom="0.49497475"
     inkscape:cx="1055.2097"
     inkscape:cy="480.77369"
     inkscape:document-units="px"
     inkscape:current-layer="layer1"
     showgrid="false"
     inkscape:window-width="1680"
     inkscape:window-height="1028"
     inkscape:window-x="1672"
     inkscape:window-y="-8"
     inkscape:window-maximized="1" />
  <metadata
     id="metadata3085">
    <rdf:RDF>
      <cc:Work
         rdf:about="">
        <dc:format>image/svg+xml</dc:format>
        <dc:type
           rdf:resource="http://purl.org/dc/dcmitype/StillImage" />
        <dc:title></dc:title>
      </cc:Work>
    </rdf:RDF>
  </metadata>
  <g
     inkscape:label="Layer 1"
     inkscape:groupmode="layer"
     id="layer1">
    <g
       id="g3057"
       transform="translate(201.28571,110.79075)"
       inkscape:export-xdpi="250.00999"
       inkscape:export-ydpi="250.00999">
      <circle
         id="circle3041"
         r="231"
         cy="233"
         cx="233"
         sodipodi:cx="233"
         sodipodi:cy="233"
         sodipodi:rx="231"
         sodipodi:ry="231"
         d="M 464,233 C 464,360.57778 360.57778,464 233,464 105.42222,464 2,360.57778 2,233 2,105.42222 105.42222,2 233,2 360.57778,2 464,105.42222 464,233 z" />
      <path
         id="path3043"
         d="m 233,459 a 226,226 0 0 1 0,-452 113,113 0 0 1 0,226 z"
         inkscape:connector-curvature="0"
         style="fill:#ffffff" />
      <circle
         id="circle3045"
         r="113"
         cy="346"
         cx="233"
         sodipodi:cx="233"
         sodipodi:cy="346"
         sodipodi:rx="113"
         sodipodi:ry="113"
         style="fill:#000000"
         d="m 346,346 c 0,62.40818 -50.59182,113 -113,113 -62.40818,0 -113,-50.59182 -113,-113 0,-62.40818 50.59182,-113 113,-113 62.40818,0 113,50.59182 113,113 z" />
      <circle
         id="circle3047"
         r="30"
         cy="120"
         cx="233"
         sodipodi:cx="233"
         sodipodi:cy="120"
         sodipodi:rx="30"
         sodipodi:ry="30"
         d="m 263,120 c 0,16.56854 -13.43146,30 -30,30 -16.56854,0 -30,-13.43146 -30,-30 0,-16.56854 13.43146,-30 30,-30 16.56854,0 30,13.43146 30,30 z" />
      <circle
         id="circle3049"
         r="30"
         cy="346"
         cx="233"
         sodipodi:cx="233"
         sodipodi:cy="346"
         sodipodi:rx="30"
         sodipodi:ry="30"
         style="fill:#ffffff"
         d="m 263,346 c 0,16.56854 -13.43146,30 -30,30 -16.56854,0 -30,-13.43146 -30,-30 0,-16.56854 13.43146,-30 30,-30 16.56854,0 30,13.43146 30,30 z" />
    </g>
    <path
       style="opacity:0.98999999;color:#000000;fill:#000000;fill-opacity:0;stroke:#ff6600;stroke-width:1.41765404;stroke-linecap:butt;stroke-linejoin:miter;stroke-miterlimit:10;stroke-opacity:1;stroke-dashoffset:0;marker:none;visibility:visible;display:inline;overflow:visible;enable-background:accumulate"
       d="M 88.269452,134.6746 C 214.77709,147.69909 306.77337,260.81222 293.74889,387.31988 280.72441,513.82753 167.61127,605.8238 41.103622,592.79932 -85.404017,579.77483 -177.40031,466.6617 -164.37583,340.15404 -151.35135,213.64639 -38.2382,121.65012 88.269438,134.6746 z"
       id="path3113"
       inkscape:connector-curvature="0" />
    <text
       xml:space="preserve"
       style="font-size:8px;font-style:normal;font-variant:normal;font-weight:normal;font-stretch:normal;line-height:125%;letter-spacing:0px;word-spacing:0px;fill:#000000;fill-opacity:1;stroke:none;font-family:Arial;-inkscape-font-specification:Arial"
       id="text3238"
       sodipodi:linespacing="125%"
       transform="matrix(-0.00174721,-0.99999847,0.99999847,-0.00174721,56.064772,397.73925)"><textPath
         xlink:href="#path3113"
         id="textPath3279"><tspan
   id="tspan3240"><tspan
     id="tspan3242"
     style="font-size:64px"
     y="-425.58578"
     x="-714.28125">PuggleBoard</tspan></tspan></textPath></text>
  </g>
</svg>
