<?xml version="1.0" encoding="UTF-8" standalone="no"?>
<!-- Created with Inkscape (http://www.inkscape.org/) -->

<svg
   xmlns:dc="http://purl.org/dc/elements/1.1/"
   xmlns:cc="http://creativecommons.org/ns#"
   xmlns:rdf="http://www.w3.org/1999/02/22-rdf-syntax-ns#"
   xmlns:svg="http://www.w3.org/2000/svg"
   xmlns="http://www.w3.org/2000/svg"
   xmlns:sodipodi="http://sodipodi.sourceforge.net/DTD/sodipodi-0.dtd"
   xmlns:inkscape="http://www.inkscape.org/namespaces/inkscape"
   width="464.17322"
   height="160.2798"
   id="svg2"
   version="1.1"
   inkscape:version="0.48.4 r9939"
   sodipodi:docname="bc_concept_00.svg">
  <defs
     id="defs4">
    <marker
       inkscape:stockid="Arrow1Mstart"
       orient="auto"
       refY="0"
       refX="0"
       id="Arrow1Mstart"
       style="overflow:visible">
      <path
         id="path3948"
         d="M 0,0 5,-5 -12.5,0 5,5 0,0 z"
         style="fill-rule:evenodd;stroke:#000000;stroke-width:1pt"
         transform="matrix(0.4,0,0,0.4,4,0)"
         inkscape:connector-curvature="0" />
    </marker>
    <marker
       inkscape:stockid="Arrow1Mend"
       orient="auto"
       refY="0"
       refX="0"
       id="Arrow1Mend"
       style="overflow:visible">
      <path
         id="path3951"
         d="M 0,0 5,-5 -12.5,0 5,5 0,0 z"
         style="fill-rule:evenodd;stroke:#000000;stroke-width:1pt"
         transform="matrix(-0.4,0,0,-0.4,-4,0)"
         inkscape:connector-curvature="0" />
    </marker>
    <inkscape:path-effect
       effect="spiro"
       id="path-effect3125"
       is_visible="true" />
  </defs>
  <sodipodi:namedview
     id="base"
     pagecolor="#ffffff"
     bordercolor="#666666"
     borderopacity="1.0"
     inkscape:pageopacity="0.0"
     inkscape:pageshadow="2"
     inkscape:zoom="0.7"
     inkscape:cx="393.59918"
     inkscape:cy="47.649769"
     inkscape:document-units="px"
     inkscape:current-layer="layer1"
     showgrid="false"
     units="mm"
     fit-margin-top="2"
     fit-margin-left="2"
     fit-margin-bottom="2"
     fit-margin-right="2"
     inkscape:window-width="1280"
     inkscape:window-height="727"
     inkscape:window-x="0"
     inkscape:window-y="25"
     inkscape:window-maximized="1" />
  <metadata
     id="metadata7">
    <rdf:RDF>
      <cc:Work
         rdf:about="">
        <dc:format>image/svg+xml</dc:format>
        <dc:type
           rdf:resource="http://purl.org/dc/dcmitype/StillImage" />
        <dc:title></dc:title>
      </cc:Work>
    </rdf:RDF>
  </metadata>
  <g
     inkscape:label="Layer 1"
     inkscape:groupmode="layer"
     id="layer1"
     transform="translate(-39.556243,-388.35963)">
    <path
       style="opacity:0.44978165;fill:#ff00ff;stroke:#ff00ff;stroke-width:0.50807619px;stroke-linecap:butt;stroke-linejoin:miter;stroke-opacity:1"
       d="m 454.78335,437.42828 c 2.3149,-3.96089 5.88199,-7.1774 10.06041,-9.07165 4.17842,-1.89425 8.94843,-2.45729 13.45306,-1.58798 4.50463,0.86931 8.7226,3.16688 11.8961,6.47992 3.1735,3.31305 5.28756,7.62592 5.96235,12.16376 0.61159,4.1128 0.0324,8.43091 -1.86031,12.13319 -1.8927,3.70227 -5.1278,6.74587 -9.02704,8.18986 -2.1729,0.80468 -4.49203,1.11106 -6.7542,1.61263 -2.26217,0.50157 -4.54765,1.23867 -6.31061,2.74231 -1.3386,1.1417 -2.31204,2.68753 -2.84839,4.36314 -0.53635,1.67562 -0.64369,3.47626 -0.39906,5.21853 0.48926,3.48454 2.35043,6.65559 4.67439,9.29767 4.64793,5.28416 11.18517,8.77578 15.26699,14.50852 4.00262,5.62151 5.18108,13.10835 3.28646,19.74407 -1.89461,6.63572 -6.77083,12.31865 -12.95615,15.37874 -6.18533,3.06008 -13.57554,3.50402 -20.14704,1.39742 -6.5715,-2.1066 -12.27638,-6.70134 -15.91012,-12.56806 -2.61961,-4.2294 -4.19471,-9.06582 -7.05854,-13.13382 -1.43192,-2.034 -3.20033,-3.87132 -5.35988,-5.10577 -2.15956,-1.23445 -4.73669,-1.83052 -7.17881,-1.35764 -1.8049,0.34949 -3.4725,1.26519 -4.85965,2.47169 -1.38714,1.2065 -2.50611,2.69674 -3.43998,4.28031 -1.86774,3.16715 -3.01507,6.7083 -4.76518,9.94193 -1.94622,3.59599 -4.65694,6.80328 -8.008,9.14622 -3.35106,2.34293 -7.35128,3.79881 -11.43759,3.9438 -4.08631,0.14499 -8.2425,-1.05567 -11.49915,-3.52815 -3.25665,-2.47249 -5.55658,-6.23146 -6.07224,-10.28769 -0.39147,-3.0793 0.22156,-6.21226 1.22859,-9.14846 1.00702,-2.9362 2.40199,-5.72117 3.64018,-8.56762 1.23819,-2.84644 2.33083,-5.79691 2.68169,-8.88111 0.35087,-3.08419 -0.0932,-6.33933 -1.74388,-8.96814 -1.16954,-1.86258 -2.88625,-3.32934 -4.7451,-4.5048 -1.85885,-1.17545 -3.87142,-2.08249 -5.85438,-3.03376 -1.98295,-0.95126 -3.95678,-1.95902 -5.69373,-3.3081 -1.73696,-1.34908 -3.23924,-3.06914 -4.02983,-5.12145 -0.8483,-2.20211 -0.82387,-4.7035 -0.062,-6.93698 0.76189,-2.23347 2.23654,-4.19714 4.0846,-5.66464 1.84806,-1.46749 4.05858,-2.44918 6.35858,-2.97725 2.30001,-0.52807 4.68918,-0.61131 7.03856,-0.38924 2.07527,0.19616 4.12401,0.62756 6.20189,0.79371 2.07789,0.16615 4.23197,0.0523 6.1371,-0.79371 1.61141,-0.71555 2.97777,-1.93609 3.96317,-3.39817 0.98539,-1.46208 1.59844,-3.15873 1.88651,-4.89818 0.57614,-3.4789 -0.12843,-7.04806 -1.17357,-10.41591 -1.04514,-3.36784 -2.43267,-6.63097 -3.27833,-10.05436 -0.84567,-3.42338 -1.1231,-7.10376 0.0539,-10.42783 0.78188,-2.20823 2.19417,-4.18463 4.00903,-5.66582 1.81486,-1.48119 4.02526,-2.46635 6.3347,-2.85895 2.30943,-0.3926 4.7127,-0.19522 6.93792,0.53692 2.22522,0.73215 4.26988,1.99503 5.94469,3.63291 1.12879,1.1039 2.08853,2.3708 3.21866,3.47334 1.13013,1.10254 2.48465,2.05937 4.03957,2.33325 1.66335,0.29298 3.4026,-0.24149 4.78798,-1.20757 1.38537,-0.96607 2.44845,-2.33281 3.30524,-3.78831 1.7136,-2.91099 2.71192,-6.28396 4.9716,-8.79476 1.89337,-2.10379 4.58621,-3.43666 7.39191,-3.80925 2.8057,-0.37258 5.70683,0.19223 8.23693,1.46085 2.53009,1.26862 4.69224,3.2229 6.33305,5.52909 1.6408,2.30619 2.76934,4.95739 3.44191,7.70665 1.81626,7.42435 0.17712,15.62001 -4.35494,21.7747"
       id="path3123"
       inkscape:path-effect="#path-effect3125"
       inkscape:original-d="m 454.78335,437.42828 c 14.24176,-13.40272 34.81317,-11.69219 41.37192,7.98405 3.20983,9.62948 -3.81426,16.78651 -10.88735,20.32305 -4.10587,2.05294 -17.51826,3.24158 -13.06481,4.35494 11.34767,2.83692 28.29413,21.78768 16.69393,33.38786 -13.93312,13.93313 -25.41101,23.95217 -45.72685,23.95217 -18.45086,0 -21.5906,-19.59723 -19.59723,-19.59723 2.5973,0 -11.82482,15.45394 -13.06481,16.69393 -8.10759,8.10759 -29.02612,5.26732 -37.01698,-0.72582 -12.26795,-9.20096 -9.61887,-35.56533 5.80658,-35.56533 0.95609,0 -25.43103,-10.86013 -20.32304,-15.96811 5.19897,-5.19897 10.18418,-13.55625 17.41975,-15.96811 3.90193,-1.30064 12.33899,4.113 12.33899,0 0,-9.10694 -9.66112,-31.78593 1.45165,-39.19445 5.90476,-3.9365 16.69964,-6.96562 23.22634,-4.35494 2.01235,0.80494 5.245,6.8132 7.25823,5.80659 5.65192,-2.82596 7.66027,-11.08836 13.06482,-13.79064 5.87795,-2.93897 23.08366,6.24706 25.4038,10.88734 1.13184,2.26368 -3.00336,19.52208 -4.35494,21.7747 z"
       inkscape:connector-curvature="0" />
    <rect
       style="fill:#ffffff;fill-opacity:1;stroke:#000000;stroke-width:0.50496644"
       id="rect2985"
       width="97.986519"
       height="128.4478"
       x="46.89534"
       y="395.69873" />
    <rect
       style="fill:#ffffff;fill-opacity:1;stroke:#000000;stroke-width:0.50496644"
       id="rect2985-9"
       width="97.986519"
       height="128.4478"
       x="158.58672"
       y="395.69873" />
    <rect
       style="fill:#ffffff;fill-opacity:1;stroke:#000000;stroke-width:0.50496644"
       id="rect2985-9-5"
       width="97.986519"
       height="128.4478"
       x="267.50888"
       y="395.69873" />
    <flowRoot
       xml:space="preserve"
       id="flowRoot3023"
       style="font-size:20px;font-style:normal;font-variant:normal;font-weight:normal;font-stretch:normal;text-align:start;line-height:125%;letter-spacing:0px;word-spacing:0px;writing-mode:lr-tb;text-anchor:start;fill:#000000;fill-opacity:1;stroke:none;font-family:Sans;-inkscape-font-specification:Sans"
       transform="matrix(0.64614848,0,0,0.64614848,134.97125,195.54554)"><flowRegion
         id="flowRegion3025"><rect
           id="rect3027"
           width="118.18785"
           height="145.96706"
           x="-123.23861"
           y="354.34677" /></flowRegion><flowPara
         id="flowPara3031">Real-time Linux (and everything that comes with it..)</flowPara></flowRoot>    <flowRoot
       xml:space="preserve"
       id="flowRoot3023-6"
       style="font-size:20px;font-style:normal;font-variant:normal;font-weight:normal;font-stretch:normal;text-align:start;line-height:125%;letter-spacing:0px;word-spacing:0px;writing-mode:lr-tb;text-anchor:start;fill:#000000;fill-opacity:1;stroke:none;font-family:Sans;-inkscape-font-specification:Sans"
       transform="matrix(0.64614848,0,0,0.64614848,264.34915,172.93795)"><flowRegion
         id="flowRegion3025-3"><rect
           id="rect3027-0"
           width="106.06602"
           height="94.954346"
           x="-123.23861"
           y="354.34677" /></flowRegion><flowPara
         id="flowPara3029-5">Dedicated hardware</flowPara><flowPara
         id="flowPara3063">controller</flowPara><flowPara
         id="flowPara3031-3" /></flowRoot>    <rect
       style="fill:#ffffff;fill-opacity:1;stroke:#000000;stroke-width:0.40384281;stroke-linecap:square;stroke-linejoin:miter;stroke-miterlimit:4;stroke-opacity:1;stroke-dasharray:none;stroke-dashoffset:0"
       id="rect3065"
       width="28.066465"
       height="57.438351"
       x="137.25572"
       y="459.54028" />
    <rect
       style="fill:#ffffff;stroke:#000000;stroke-width:0.40384281;stroke-linecap:square;stroke-linejoin:miter;stroke-miterlimit:4;stroke-opacity:1;stroke-dasharray:none;stroke-dashoffset:0"
       id="rect3065-2"
       width="28.066465"
       height="57.438351"
       x="248.00784"
       y="459.54028" />
    <rect
       style="fill:#ffffff;stroke:#000000;stroke-width:0.63364899;stroke-linecap:square;stroke-linejoin:miter;stroke-miterlimit:4;stroke-opacity:1;stroke-dasharray:none;stroke-dashoffset:0"
       id="rect3065-2-7"
       width="69.374779"
       height="57.208549"
       x="343.19888"
       y="459.65521" />
    <flowRoot
       xml:space="preserve"
       id="flowRoot3085"
       style="font-size:20px;font-style:normal;font-variant:normal;font-weight:normal;font-stretch:normal;text-align:start;line-height:125%;letter-spacing:0px;word-spacing:0px;writing-mode:lr-tb;text-anchor:start;fill:#000000;fill-opacity:1;stroke:none;font-family:Sans;-inkscape-font-specification:Sans"
       transform="matrix(0,-0.64614848,0.64614848,0,82.890541,840.52887)"><flowRegion
         id="flowRegion3087"><rect
           id="rect3089"
           width="74.285713"
           height="68.571426"
           x="605"
           y="374.50504" /></flowRegion><flowPara
         id="flowPara3091">Analog I/O</flowPara></flowRoot>    <flowRoot
       xml:space="preserve"
       id="flowRoot3085-4"
       style="font-size:20px;font-style:normal;font-variant:normal;font-weight:normal;font-stretch:normal;text-align:start;line-height:125%;letter-spacing:0px;word-spacing:0px;writing-mode:lr-tb;text-anchor:start;fill:#000000;fill-opacity:1;stroke:none;font-family:Sans;-inkscape-font-specification:Sans"
       transform="matrix(0.64614848,0,0,0.64614848,40.744229,223.21369)"><flowRegion
         id="flowRegion3087-9"><rect
           id="rect3089-8"
           width="74.285713"
           height="68.571426"
           x="605"
           y="374.50504" /></flowRegion><flowPara
         id="flowPara3091-4">The world</flowPara></flowRoot>    <path
       style="fill:none;stroke:#000000;stroke-width:1.93844545;stroke-linecap:butt;stroke-linejoin:miter;stroke-miterlimit:4;stroke-opacity:1;stroke-dasharray:none;marker-end:url(#Arrow1Mend)"
       d="m 143.45646,456.16253 c -6.5507,-46.34484 -30.4176,-64.41394 -43.894661,-54.50116 -3.297399,2.42533 -6.543132,18.56802 -7.240578,21.35781"
       id="path3166"
       inkscape:connector-curvature="0"
       sodipodi:nodetypes="csc" />
    <path
       style="fill:none;stroke:#000000;stroke-width:1.93844545;stroke-linecap:butt;stroke-linejoin:miter;stroke-miterlimit:4;stroke-opacity:1;stroke-dasharray:none;marker-end:url(#Arrow1Mend)"
       d="m 90.913418,509.35828 c 1.332417,9.48984 5.921615,11.409 14.359592,11.74875 17.07479,0.6875 18.36321,-5.57458 27.35437,-12.7872"
       id="path3168"
       inkscape:connector-curvature="0"
       sodipodi:nodetypes="csc" />
    <path
       style="fill:none;stroke:#000000;stroke-width:1.93844545;stroke-linecap:butt;stroke-linejoin:miter;stroke-miterlimit:4;stroke-opacity:1;stroke-dasharray:none;marker-start:none;marker-end:url(#Arrow1Mend)"
       d="m 423.61443,471.98426 -26.77708,0"
       id="path4382"
       inkscape:connector-curvature="0" />
    <path
       style="fill:none;stroke:#000000;stroke-width:1.93844545;stroke-linecap:butt;stroke-linejoin:miter;stroke-miterlimit:4;stroke-opacity:1;stroke-dasharray:none;marker-end:url(#Arrow1Mend)"
       d="m 255.80716,471.98426 -94.60822,0"
       id="path4384"
       inkscape:connector-curvature="0" />
    <path
       style="fill:none;stroke:#000000;stroke-width:1.93844545;stroke-linecap:butt;stroke-linejoin:miter;stroke-miterlimit:4;stroke-opacity:1;stroke-dasharray:none;marker-start:url(#Arrow1Mstart)"
       d="m 255.80716,503.07611 -94.60821,0"
       id="path4384-6"
       inkscape:connector-curvature="0" />
    <path
       style="fill:none;stroke:#000000;stroke-width:1.93844545;stroke-linecap:butt;stroke-linejoin:miter;stroke-miterlimit:4;stroke-opacity:1;stroke-dasharray:none;marker-end:url(#Arrow1Mend)"
       d="m 365.6524,471.98426 -94.60822,0"
       id="path4384-1"
       inkscape:connector-curvature="0" />
    <path
       style="fill:none;stroke:#000000;stroke-width:1.93844545;stroke-linecap:butt;stroke-linejoin:miter;stroke-miterlimit:4;stroke-opacity:1;stroke-dasharray:none;marker-start:url(#Arrow1Mstart)"
       d="m 365.6524,503.07611 -94.60822,0"
       id="path4384-61"
       inkscape:connector-curvature="0" />
    <path
       style="fill:none;stroke:#000000;stroke-width:1.93844545;stroke-linecap:butt;stroke-linejoin:miter;stroke-miterlimit:4;stroke-opacity:1;stroke-dasharray:none;marker-start:url(#Arrow1Mstart)"
       d="m 423.61443,503.07611 -26.77708,0"
       id="path4382-6"
       inkscape:connector-curvature="0" />
    <path
       style="fill:none;stroke:#000000;stroke-width:0.51360691px;stroke-linecap:butt;stroke-linejoin:miter;stroke-opacity:1"
       d="m 316.50214,401.60077 0,116.64371"
       id="path5540"
       inkscape:connector-curvature="0" />
    <flowRoot
       xml:space="preserve"
       id="flowRoot3085-1"
       style="font-size:20px;font-style:normal;font-variant:normal;font-weight:normal;font-stretch:normal;text-align:start;line-height:125%;letter-spacing:0px;word-spacing:0px;writing-mode:lr-tb;text-anchor:start;fill:#000000;fill-opacity:1;stroke:none;font-family:Sans;-inkscape-font-specification:Sans"
       transform="matrix(0,-0.64614848,0.64614848,0,36.906882,852.86501)"><flowRegion
         id="flowRegion3087-6"><rect
           id="rect3089-0"
           width="95.498909"
           height="66.046059"
           x="605"
           y="374.50504" /></flowRegion><flowPara
         id="flowPara3091-48">Digital interface</flowPara></flowRoot>    <flowRoot
       xml:space="preserve"
       id="flowRoot5569"
       style="font-size:20px;font-style:normal;font-variant:normal;font-weight:normal;font-stretch:normal;text-align:start;line-height:125%;letter-spacing:0px;word-spacing:0px;writing-mode:lr-tb;text-anchor:start;fill:#000000;fill-opacity:1;stroke:none;font-family:Sans;-inkscape-font-specification:Sans"><flowRegion
         id="flowRegion5571"><rect
           id="rect5573"
           width="49.497475"
           height="22.223356"
           x="64.649765"
           y="536.17426" /></flowRegion><flowPara
         id="flowPara5575"></flowPara></flowRoot>    <flowRoot
       xml:space="preserve"
       id="flowRoot5577"
       style="font-size:20px;font-style:normal;font-variant:normal;font-weight:normal;font-stretch:normal;text-align:start;line-height:125%;letter-spacing:0px;word-spacing:0px;writing-mode:lr-tb;text-anchor:start;fill:#000000;fill-opacity:1;stroke:none;font-family:Sans;-inkscape-font-specification:Sans"
       transform="matrix(0.64614848,0,0,0.64614848,-14.674948,-24.153769)"><flowRegion
         id="flowRegion5579"><rect
           id="rect5581"
           width="235.71428"
           height="145.71428"
           x="98.571426"
           y="650.93359" /></flowRegion><flowPara
         id="flowPara5583">(1)</flowPara></flowRoot>    <flowRoot
       xml:space="preserve"
       id="flowRoot5577-0"
       style="font-size:20px;font-style:normal;font-variant:normal;font-weight:normal;font-stretch:normal;text-align:start;line-height:125%;letter-spacing:0px;word-spacing:0px;writing-mode:lr-tb;text-anchor:start;fill:#000000;fill-opacity:1;stroke:none;font-family:Sans;-inkscape-font-specification:Sans"
       transform="matrix(0.64614848,0,0,0.64614848,78.443918,58.827287)"><flowRegion
         id="flowRegion5579-1"><rect
           id="rect5581-9"
           width="235.71428"
           height="145.71428"
           x="98.571426"
           y="650.93359" /></flowRegion><flowPara
         id="flowPara5583-2">(2)</flowPara></flowRoot>    <flowRoot
       xml:space="preserve"
       id="flowRoot5577-1"
       style="font-size:20px;font-style:normal;font-variant:normal;font-weight:normal;font-stretch:normal;text-align:start;line-height:125%;letter-spacing:0px;word-spacing:0px;writing-mode:lr-tb;text-anchor:start;fill:#000000;fill-opacity:1;stroke:none;font-family:Sans;-inkscape-font-specification:Sans"
       transform="matrix(0.64614848,0,0,0.64614848,189.19604,58.827287)"><flowRegion
         id="flowRegion5579-4"><rect
           id="rect5581-3"
           width="235.71428"
           height="145.71428"
           x="98.571426"
           y="650.93359" /></flowRegion><flowPara
         id="flowPara5583-27">(4)</flowPara></flowRoot>    <flowRoot
       xml:space="preserve"
       id="flowRoot5577-4"
       style="font-size:20px;font-style:normal;font-variant:normal;font-weight:normal;font-stretch:normal;text-align:start;line-height:125%;letter-spacing:0px;word-spacing:0px;writing-mode:lr-tb;text-anchor:start;fill:#000000;fill-opacity:1;stroke:none;font-family:Sans;-inkscape-font-specification:Sans"
       transform="matrix(0.64614848,0,0,0.64614848,96.551774,-24.153769)"><flowRegion
         id="flowRegion5579-2"><rect
           id="rect5581-93"
           width="235.71428"
           height="145.71428"
           x="98.571426"
           y="650.93359" /></flowRegion><flowPara
         id="flowPara5583-7">(3)</flowPara></flowRoot>    <flowRoot
       xml:space="preserve"
       id="flowRoot5577-5"
       style="font-size:20px;font-style:normal;font-variant:normal;font-weight:normal;font-stretch:normal;text-align:start;line-height:125%;letter-spacing:0px;word-spacing:0px;writing-mode:lr-tb;text-anchor:start;fill:#000000;fill-opacity:1;stroke:none;font-family:Sans;-inkscape-font-specification:Sans"
       transform="matrix(0.64614848,0,0,0.64614848,207.35385,-24.153769)"><flowRegion
         id="flowRegion5579-27"><rect
           id="rect5581-0"
           width="235.71428"
           height="145.71428"
           x="98.571426"
           y="650.93359" /></flowRegion><flowPara
         id="flowPara5583-271">(5)</flowPara></flowRoot>  </g>
</svg>
